<svg xmlns="http://www.w3.org/2000/svg" width="20" height="20" viewBox="0 0 20 20" fill="none">
  <path d="M2 3C2 2.44772 2.44772 2 3 2H5.15287C5.64171 2 6.0589 2.35341 6.13927 2.8356L7.26772 9.27147C7.33449 9.67546 7.14066 10.0845 6.78483 10.3C6.78483 10.3 5.3 11.4 8 14C10.7 16.6 11.8 15.1152 11.8 15.1152C12.0155 14.7594 12.4245 14.5655 12.8285 14.6323L19.1644 15.7608C19.6466 15.8411 20 16.2583 20 16.7471V19C20 19.5523 19.5523 20 19 20H18C9.71573 20 3 13.2843 3 5V4C3 3.44772 2.55228 3 2 3Z" stroke="currentColor" stroke-width="1.5" stroke-linecap="round" stroke-linejoin="round"/>
</svg> 